<?xml version="1.0" encoding="UTF-8"?>
<!-- Generator: Adobe Illustrator 26.0.1, SVG Export Plug-In . SVG Version: 6.00 Build 0)  -->
<svg version="1.1" id="svg3336" xmlns:cc="http://creativecommons.org/ns#" xmlns:dc="http://purl.org/dc/elements/1.1/" xmlns:inkscape="http://www.inkscape.org/namespaces/inkscape" xmlns:rdf="http://www.w3.org/1999/02/22-rdf-syntax-ns#" xmlns:sodipodi="http://sodipodi.sourceforge.net/DTD/sodipodi-0.dtd" xmlns:svg="http://www.w3.org/2000/svg" xmlns="http://www.w3.org/2000/svg" xmlns:xlink="http://www.w3.org/1999/xlink" x="0px" y="0px" viewBox="0 0 113.8 32.5" style="enable-background:new 0 0 113.8 32.5;" xml:space="preserve">
<style type="text/css">
	.st0{fill:#FFFFFF;}
</style>
<path class="st0" d="M0,0v32.5h22.8V0H0z M10.6,2.7h0.5V2.2h0.5v0.5h0.5v0.5h-0.5v0.5h-0.5V3.3h-0.5L10.6,2.7L10.6,2.7z M6.5,26H5.4  v1.1H4.3V26H3.3v-1.1h1.1v-1.1h1.1v1.1h1.1V26z M6.5,19.5H5.4v1.1H4.3v-1.1H3.3v-1.1h1.1v-1.1h1.1v1.1h1.1V19.5z M6.5,13H5.4v1.1  H4.3V13H3.3v-1.1h1.1v-1.1h1.1v1.1h1.1V13z M11.9,24.3c0,0.2,0,0.4,0,0.6c0,1.6,0.5,3.1,1.4,4.3H9.5c0.9-1.2,1.4-2.7,1.4-4.3  c0-0.2,0-0.4,0-0.6c-1.8-0.3-3.2-1.8-3.2-3.8h7.6C15.2,22.5,13.8,24.1,11.9,24.3z M13,11.9V13h-1.1v1.1h-1.1V13H9.8v-1.1h1.1v-1.1  h1.1v1.1H13z M11.4,15.2c1.2,0,2.2,1,2.2,2.2c0,1.2-1,2.2-2.2,2.2c-1.2,0-2.2-1-2.2-2.2C9.2,16.1,10.2,15.2,11.4,15.2z M15.2,9.5  H7.6V8.7h7.6V9.5z M15.9,7.3l-0.4,0.6h-1l0.7-1c0.1-0.2,0.2-0.4,0.2-0.6c0-0.3-0.1-0.5-0.2-0.6c-0.2-0.2-0.4-0.3-0.7-0.3  c-0.1,0-0.2,0-0.2,0l0,0c0.1,0.2,0.1,0.4,0.1,0.6c0,0.4,0,0.6-0.2,1l-0.6,1h-1l0.8-1.4c0.1-0.1,0.1-0.4,0.1-0.6  c0-0.3-0.1-0.5-0.3-0.7C13,5,12.8,4.9,12.5,4.9c-0.3,0-0.6,0.1-0.7,0.3v2.6H11V5.2c-0.2-0.2-0.4-0.3-0.7-0.3C10,4.9,9.7,5,9.5,5.2  C9.3,5.4,9.3,5.7,9.3,5.9c0,0.2,0.1,0.4,0.1,0.6l0.8,1.4h-1l-0.6-1c-0.2-0.3-0.2-0.6-0.2-1c0-0.2,0-0.4,0.1-0.6l0,0c0,0-0.1,0-0.2,0  C8,5.3,7.8,5.4,7.6,5.6C7.4,5.8,7.3,6,7.3,6.3c0,0.1,0,0.4,0.2,0.6l0.7,1h-1L6.8,7.3C6.6,7,6.5,6.6,6.5,6.3C6.5,5.7,6.7,5.3,7,5  c0.4-0.4,0.8-0.5,1.3-0.5c0.2,0,0.4,0,0.7,0.1c0,0,0,0,0.1-0.1c0.3-0.3,0.7-0.5,1.2-0.5c0.4,0,0.8,0.1,1.1,0.4  c0.3-0.3,0.7-0.4,1.1-0.4c0.5,0,0.9,0.2,1.2,0.5c0,0,0,0,0.1,0.1c0.2-0.1,0.5-0.1,0.7-0.1c0.5,0,0.9,0.2,1.3,0.5  c0.3,0.3,0.5,0.7,0.5,1.3C16.3,6.6,16.2,7,15.9,7.3z M19.5,26h-1.1v1.1h-1.1V26h-1.1v-1.1h1.1v-1.1h1.1v1.1h1.1V26z M19.5,19.5h-1.1  v1.1h-1.1v-1.1h-1.1v-1.1h1.1v-1.1h1.1v1.1h1.1V19.5z M19.5,13h-1.1v1.1h-1.1V13h-1.1v-1.1h1.1v-1.1h1.1v1.1h1.1V13z M37.9,23.8  c0,3.5-2,5.5-5,5.5h-3.6V18.4h3.4C35.8,18.4,37.9,20.3,37.9,23.8z M36.3,23.8c0-2.7-1.6-4-3.7-4h-2v8.2h2.1  C34.9,27.9,36.3,26.6,36.3,23.8z M40.4,18.4h6.7l-0.4,1.3h-4.8v3.2h4.3v1.3h-4.3v3.7h4.9l0.4,1.3h-6.7L40.4,18.4L40.4,18.4z   M53.5,23.8c0-3.4,2.1-5.6,5.3-5.6c1.2,0,2.7,0.5,3.7,1.1v1.6c-1.3-0.8-2.8-1.4-3.7-1.4c-2.2,0-3.8,1.7-3.8,4.3  c0,2.7,1.4,4.4,3.4,4.4c1.9,0,3.3-1.2,3.4-3.2h-3l-0.4-1.3h4.9c0.1,0.3,0.1,0.6,0.1,1c0,2.9-1.9,4.9-4.9,4.9  C55.4,29.5,53.5,27.3,53.5,23.8z M69.2,18.4h0.9l4.6,10.8h-1.6L72,26.6h-4.9l-1.1,2.7h-1.5L69.2,18.4z M71.5,25.3l-1.9-4.8l-1.9,4.8  H71.5z M76.6,18.4H78v9.5h5l0.4,1.3h-6.9V18.4z M85.5,18.4h1.4v10.8h-1.4V18.4z M89.5,23.8c0-3.4,1.8-5.6,4.8-5.6  c1.3,0,2.6,0.5,3.6,1.2V21c-1.2-0.9-2.5-1.5-3.6-1.5c-1.9,0-3.3,1.6-3.3,4.2c0,2.7,1.3,4.4,3.3,4.4c1.1,0,2.4-0.6,3.6-1.5v1.7  c-1,0.7-2.3,1.2-3.6,1.2C91.3,29.5,89.5,27.2,89.5,23.8z M100.4,18.4h1.4v10.8h-1.4V18.4z M108.3,18.4h0.9l4.6,10.8h-1.6l-1.1-2.7  h-4.9l-1.1,2.7h-1.5L108.3,18.4z M110.7,25.3l-1.9-4.8l-1.9,4.8H110.7z M32.9,8.5l-3.5-5.3h1.7l2.7,4.1l2.7-4.1h1.6l-3.5,5.3  l3.7,5.5h-1.7l-2.9-4.4l-2.9,4.4h-1.6L32.9,8.5z M40,10.5V3.2h1.4v7.1c0,1.7,1,2.6,2.6,2.6s2.6-0.9,2.6-2.6V3.2H48v7.2  c0,2.4-1.6,3.9-4,3.9C41.6,14.4,40,12.9,40,10.5z M51.1,3.2h1.2l5.5,7.7V3.2h1.4v10.8h-0.8l-5.9-8.3v8.3h-1.4V3.2z M65.6,4.6h-3.9  l-0.4-1.3h10.2l-0.4,1.3H67v9.5h-1.4V4.6z M75.4,3.2h0.9l4.6,10.8h-1.6l-1.1-2.7h-4.9l-1.1,2.7h-1.5L75.4,3.2z M77.7,10.1l-1.9-4.8  l-1.9,4.8H77.7z"/>
</svg>