<svg xmlns="http://www.w3.org/2000/svg" xmlns:xlink="http://www.w3.org/1999/xlink" viewBox="0,0,256,256" width="50px" height="50px"><g fill="#40c1d2" fill-rule="nonzero" stroke="none" stroke-width="1" stroke-linecap="butt" stroke-linejoin="miter" stroke-miterlimit="10" stroke-dasharray="" stroke-dashoffset="0" font-family="none" font-weight="none" font-size="none" text-anchor="none" style="mix-blend-mode: normal"><g transform="scale(5.12,5.12)"><path d="M6,4c-1.09306,0 -2,0.90694 -2,2v38c0,1.09306 0.90694,2 2,2h38c1.09306,0 2,-0.90694 2,-2v-38c0,-1.09306 -0.90694,-2 -2,-2zM6,6h38v38h-38zM17.92773,14l-4.92773,22h2.39844l1.42578,-6.43359h4.80078l1.39063,6.43359h2.43164l-4.79883,-22zM19.22656,16.43945h0.0957c0.256,1.6 0.54523,3.39173 0.86523,4.92773l1.13477,5.63477l-4.09375,-0.00195l1.10156,-5.59961c0.32,-1.473 0.63948,-3.32894 0.89648,-4.96094zM32.52344,20c-1.34531,0 -2.46599,0.48811 -3.25977,1.20508c-0.79378,0.71697 -1.2803,1.62247 -1.59766,2.48242c-0.63253,1.71395 -0.61922,3.35577 -0.61914,3.36719c-0.01697,0.1495 -0.23145,2.11417 0.37109,4.25c0.31287,1.10902 0.85735,2.27666 1.83398,3.1875c0.97663,0.91084 2.38808,1.50781 4.16602,1.50781c2.11372,0 4.01758,-0.9668 4.01758,-0.9668l-0.87305,-1.80078c0,0 -1.67626,0.76758 -3.14453,0.76758c-1.35606,0 -2.18449,-0.39411 -2.80273,-0.9707c-0.61824,-0.57659 -1.02485,-1.39335 -1.27148,-2.26758c-0.30054,-1.06534 -0.33903,-2.00058 -0.33008,-2.69531h8.98633v-1c0,0 0.01347,-1.65904 -0.62109,-3.37891c-0.31728,-0.85993 -0.80403,-1.76543 -1.59766,-2.48242c-0.79363,-0.71699 -1.9127,-1.20508 -3.25781,-1.20508zM32.52344,22c0.89339,0 1.45244,0.26888 1.91797,0.68945c0.46553,0.42057 0.81821,1.03264 1.06055,1.68945c0.30433,0.82482 0.26651,1.17024 0.3125,1.6875h-6.58398c0.046,-0.51725 0.0081,-0.8627 0.3125,-1.6875c0.24239,-0.6568 0.59489,-1.26886 1.06055,-1.68945c0.46566,-0.4206 1.02623,-0.68945 1.91992,-0.68945z"></path></g></g></svg>