<svg xmlns="http://www.w3.org/2000/svg" xmlns:xlink="http://www.w3.org/1999/xlink" viewBox="0,0,256,256" width="50px" height="50px"><g fill="#40c1d2" fill-rule="nonzero" stroke="none" stroke-width="1" stroke-linecap="butt" stroke-linejoin="miter" stroke-miterlimit="10" stroke-dasharray="" stroke-dashoffset="0" font-family="none" font-weight="none" font-size="none" text-anchor="none" style="mix-blend-mode: normal"><g transform="scale(5.12,5.12)"><path d="M34.55469,3.98438c-0.77969,-0.02622 -1.5958,0.10972 -2.41406,0.375c-1.63652,0.53057 -3.35142,1.56451 -5.11133,2.99609c-0.68971,0.56104 -1.38567,1.20236 -2.08398,1.88281c-0.68291,-0.66318 -1.36458,-1.28924 -2.03906,-1.83789c-1.75849,-1.43043 -3.46875,-2.46282 -5.10156,-2.99219c-1.63281,-0.52936 -3.25746,-0.54577 -4.5918,0.22461c-1.33433,0.77038 -2.13227,2.18454 -2.49024,3.86328c-0.35796,1.67874 -0.32048,3.6779 0.03906,5.91602c0.12489,0.7774 0.30495,1.59297 0.50781,2.42383c-0.76244,0.23107 -1.50285,0.47402 -2.18945,0.74219c-2.0721,0.80931 -3.78663,1.77754 -5.03516,2.92969c-1.24853,1.15215 -2.05469,2.55049 -2.05469,4.08594c0,1.53545 0.80616,2.93183 2.05469,4.08398c1.24852,1.15215 2.96306,2.12233 5.03516,2.93164c0.73417,0.28675 1.52904,0.54495 2.34961,0.78906c-0.29516,1.10284 -0.53429,2.17303 -0.69727,3.1875c-0.35984,2.23992 -0.39783,4.23933 -0.03906,5.92187c0.35878,1.68255 1.15712,3.10472 2.49805,3.87891c1.34093,0.77419 2.97286,0.75518 4.60938,0.22461c1.63652,-0.53057 3.34947,-1.56256 5.10938,-2.99414c0.68336,-0.55587 1.3746,-1.18998 2.06641,-1.86328c0.6951,0.67698 1.38977,1.3147 2.07617,1.87305c1.75849,1.43043 3.4707,2.46282 5.10352,2.99219c1.63281,0.52936 3.25551,0.54577 4.58984,-0.22461c1.33433,-0.77038 2.13227,-2.18454 2.49023,-3.86328c0.35796,-1.67874 0.31853,-3.6779 -0.04102,-5.91602c-0.16341,-1.01722 -0.4027,-2.08901 -0.69922,-3.19531c0.84768,-0.25006 1.66765,-0.5152 2.42383,-0.81055c2.0721,-0.80931 3.78663,-1.77949 5.03516,-2.93164c1.24853,-1.15215 2.05469,-2.54854 2.05469,-4.08398c0,-1.53545 -0.80616,-2.93379 -2.05469,-4.08594c-1.24853,-1.15215 -2.96306,-2.12037 -5.03516,-2.92969c-0.69645,-0.27202 -1.44823,-0.51813 -2.22266,-0.75195c0.20451,-0.83595 0.38608,-1.65737 0.51172,-2.43945c0.35983,-2.23991 0.39784,-4.24128 0.03906,-5.92383c-0.35877,-1.68255 -1.15907,-3.10277 -2.5,-3.87695c-0.67047,-0.38709 -1.41367,-0.57535 -2.19336,-0.60156zM34.46289,6.01953c0.48926,0.01338 0.90664,0.12981 1.26367,0.33594c0.71406,0.41226 1.24186,1.21462 1.52344,2.53516c0.28158,1.32053 0.27185,3.1047 -0.06055,5.17383c-0.11381,0.70843 -0.27905,1.45924 -0.4668,2.22852c-2.04495,-0.49214 -4.28569,-0.85754 -6.67383,-1.07227c-1.19973,-1.66224 -2.43287,-3.17433 -3.67578,-4.51758c0.65714,-0.64146 1.31002,-1.2414 1.94727,-1.75977c1.62571,-1.32243 3.16481,-2.22226 4.44922,-2.63867c0.6422,-0.20821 1.2041,-0.29854 1.69336,-0.28516zM15.48633,6.02539c0.49209,-0.01374 1.05516,0.07635 1.69922,0.28516c1.28811,0.41761 2.8299,1.31705 4.45703,2.64063c0.62431,0.50784 1.26287,1.0947 1.90625,1.7207c-1.25187,1.35391 -2.49365,2.88183 -3.70117,4.55859c-2.37965,0.21869 -4.6124,0.58756 -6.64844,1.08203c-0.18653,-0.7656 -0.34958,-1.51341 -0.46289,-2.21875c-0.33269,-2.07092 -0.34099,-3.8573 -0.05859,-5.18164c0.28239,-1.32434 0.8145,-2.13081 1.53516,-2.54687c0.36032,-0.20803 0.78135,-0.32611 1.27344,-0.33984zM24.97656,12.14258c0.8145,0.8864 1.6295,1.85672 2.4375,2.90039c-0.79403,-0.03311 -1.59777,-0.05274 -2.41406,-0.05274c-0.83254,0 -1.65159,0.02026 -2.46094,0.05469c0.80829,-1.04462 1.62269,-2.01518 2.4375,-2.90234zM25,17.00977c1.35989,0 2.68535,0.05588 3.97461,0.15039c0.88712,1.27416 1.75404,2.6259 2.58008,4.05664c0.72582,1.25715 1.38264,2.51237 1.98047,3.75195c-0.60414,1.25603 -1.27197,2.52822 -2.00781,3.80273c-0.64774,1.12191 -1.32415,2.18746 -2.01172,3.21484c-1.45631,0.12172 -2.96532,0.18945 -4.51562,0.18945c-1.58762,0 -3.13054,-0.07175 -4.61914,-0.19922c-0.67612,-1.01261 -1.34112,-2.06398 -1.97852,-3.16797c-0.73416,-1.2716 -1.39877,-2.53951 -2.00195,-3.79297c0.60572,-1.26053 1.27331,-2.53745 2.01172,-3.81641c0.82171,-1.42324 1.6861,-2.76716 2.56836,-4.03516c1.30314,-0.09664 2.64398,-0.1543 4.01953,-0.1543zM31.55078,17.41016c1.64775,0.20566 3.19487,0.49138 4.63477,0.83398c-0.42742,1.40115 -0.95389,2.86467 -1.5918,4.375c-0.41418,-0.79842 -0.84315,-1.59956 -1.30664,-2.40234c-0.56138,-0.97234 -1.14508,-1.90084 -1.73633,-2.80664zM18.34375,17.42578c-0.5791,0.88932 -1.14891,1.7988 -1.69922,2.75195c-0.46944,0.81309 -0.90731,1.625 -1.32617,2.43359c-0.6324,-1.50125 -1.1557,-2.95645 -1.58008,-4.34961c1.42972,-0.34336 2.96848,-0.62791 4.60547,-0.83594zM38.16406,18.77539c0.70888,0.21449 1.3935,0.43832 2.02148,0.68359c1.91015,0.74606 3.4211,1.62951 4.40039,2.5332c0.97929,0.90369 1.4043,1.76551 1.4043,2.60156c0,0.83605 -0.42501,1.69787 -1.4043,2.60156c-0.97929,0.90369 -2.49024,1.78714 -4.40039,2.5332c-0.69785,0.27256 -1.46459,0.51973 -2.26172,0.75391c-0.56863,-1.75878 -1.29442,-3.59365 -2.1582,-5.4668c0.99316,-2.15054 1.79546,-4.24734 2.39844,-6.24023zM11.80273,18.78516c0.59606,1.97294 1.38812,4.04905 2.36719,6.17773c-0.86945,1.88406 -1.59883,3.72936 -2.16992,5.49805c-0.76904,-0.22802 -1.50979,-0.46849 -2.18555,-0.73242c-1.91015,-0.74606 -3.4211,-1.62951 -4.40039,-2.5332c-0.97929,-0.90369 -1.4043,-1.76551 -1.4043,-2.60156c0,-0.83605 0.42501,-1.69787 1.4043,-2.60156c0.97929,-0.90369 2.49024,-1.78714 4.40039,-2.5332c0.61832,-0.2415 1.29146,-0.46215 1.98828,-0.67383zM25,20c-2.74958,0 -5,2.25042 -5,5c0,2.74958 2.25042,5 5,5c2.74958,0 5,-2.25042 5,-5c0,-2.74958 -2.25042,-5 -5,-5zM25,22c1.6687,0 3,1.3313 3,3c0,1.6687 -1.3313,3 -3,3c-1.6687,0 -3,-1.3313 -3,-3c0,-1.6687 1.3313,-3 3,-3zM34.61914,27.36328c0.52446,1.24121 0.98032,2.45577 1.36328,3.62695c-1.20261,0.27886 -2.48313,0.51382 -3.83008,0.69922c0.38773,-0.61867 0.77064,-1.24888 1.14453,-1.89648c0.46868,-0.81178 0.90397,-1.62249 1.32227,-2.42969zM15.3418,27.36523c0.42051,0.8122 0.85847,1.62652 1.33008,2.44336c0.36919,0.63946 0.74618,1.26377 1.12891,1.875c-1.34296,-0.18622 -2.61955,-0.42199 -3.81836,-0.70117c0.38123,-1.16761 0.83732,-2.37963 1.35938,-3.61719zM13.40625,32.92383c1.80982,0.42874 3.77147,0.75808 5.85156,0.97266c1.38884,2.00876 2.83486,3.81281 4.29102,5.39063c-0.65102,0.63475 -1.29626,1.23047 -1.92773,1.74414c-1.62571,1.32243 -3.16677,2.22031 -4.45117,2.63672c-1.28441,0.41641 -2.24298,0.36148 -2.95703,-0.05078c-0.71406,-0.41226 -1.2399,-1.21462 -1.52149,-2.53516c-0.28158,-1.32053 -0.2738,-3.10275 0.05859,-5.17187c0.15079,-0.93866 0.37615,-1.94378 0.65625,-2.98633zM36.56055,32.93164c0.28224,1.04835 0.50854,2.05817 0.66016,3.00195c0.33269,2.07092 0.34099,3.85535 0.05859,5.17969c-0.28239,1.32434 -0.81255,2.13276 -1.5332,2.54883c-0.72065,0.41607 -1.6865,0.4723 -2.97461,0.05469c-1.28811,-0.41761 -2.82991,-1.319 -4.45703,-2.64258c-0.63601,-0.51736 -1.28573,-1.11596 -1.94141,-1.75586c1.46562,-1.58377 2.92242,-3.3976 4.32031,-5.41797c2.08534,-0.21314 4.05243,-0.54052 5.86719,-0.96875zM21.86719,34.10156c1.02676,0.05596 2.06706,0.09375 3.13281,0.09375c1.0305,0 2.03706,-0.03552 3.03125,-0.08789c-1.01629,1.37117 -2.05222,2.61773 -3.08398,3.74023c-1.03114,-1.1249 -2.06512,-2.37369 -3.08008,-3.74609z"></path></g></g><g fill="#40c1d2" fill-rule="nonzero" stroke="none" stroke-width="1" stroke-linecap="butt" stroke-linejoin="miter" stroke-miterlimit="10" stroke-dasharray="" stroke-dashoffset="0" font-family="none" font-weight="none" font-size="none" text-anchor="none" style="mix-blend-mode: normal"><g><path d="M98.625,235.233v3.01c-0.48667,-0.08 -1.01667,-0.12 -1.59,-0.12v0c-2.12,0 -3.56,0.90333 -4.32,2.71v0v13.44h-3.24v-18.93h3.15l0.05,2.18c1.06667,-1.68667 2.57333,-2.53 4.52,-2.53v0c0.62667,0 1.10333,0.08 1.43,0.24zM109.125,254.623v0c-2.56667,0 -4.65333,-0.84333 -6.26,-2.53c-1.61333,-1.68667 -2.42,-3.94 -2.42,-6.76v0v-0.6c0,-1.87333 0.36,-3.55 1.08,-5.03c0.72,-1.47333 1.72333,-2.62667 3.01,-3.46c1.28667,-0.83333 2.68333,-1.25 4.19,-1.25v0c2.46,0 4.37333,0.81 5.74,2.43c1.36667,1.62 2.05,3.94 2.05,6.96v0v1.35h-12.83c0.04667,1.86667 0.59333,3.37333 1.64,4.52c1.04,1.15333 2.36667,1.73 3.98,1.73v0c1.14,0 2.10667,-0.23333 2.9,-0.7c0.79333,-0.46667 1.49,-1.08667 2.09,-1.86v0l1.97,1.54c-1.58667,2.44 -3.96667,3.66 -7.14,3.66zM108.725,237.653v0c-1.30667,0 -2.40333,0.47333 -3.29,1.42c-0.88667,0.95333 -1.43333,2.28667 -1.64,4v0h9.48v-0.24c-0.09333,-1.64667 -0.53667,-2.92333 -1.33,-3.83c-0.79333,-0.9 -1.86667,-1.35 -3.22,-1.35zM135.345,254.273h-3.4c-0.18667,-0.37333 -0.33667,-1.03667 -0.45,-1.99v0c-1.50667,1.56 -3.30333,2.34 -5.39,2.34v0c-1.86667,0 -3.4,-0.52667 -4.6,-1.58c-1.19333,-1.06 -1.79,-2.4 -1.79,-4.02v0c0,-1.97333 0.75,-3.50333 2.25,-4.59c1.5,-1.09333 3.61,-1.64 6.33,-1.64v0h3.15v-1.49c0,-1.12667 -0.34,-2.02667 -1.02,-2.7c-0.67333,-0.67333 -1.67,-1.01 -2.99,-1.01v0c-1.15333,0 -2.12333,0.29333 -2.91,0.88c-0.78,0.58 -1.17,1.28667 -1.17,2.12v0h-3.25c0,-0.94667 0.33333,-1.86 1,-2.74c0.67333,-0.88 1.58333,-1.57667 2.73,-2.09c1.15333,-0.51333 2.41667,-0.77 3.79,-0.77v0c2.18,0 3.89,0.54333 5.13,1.63c1.23333,1.09333 1.87333,2.59667 1.92,4.51v0v8.71c0,1.74 0.22333,3.12333 0.67,4.15v0zM126.575,251.803v0c1.01333,0 1.97667,-0.26 2.89,-0.78c0.90667,-0.52667 1.56667,-1.21 1.98,-2.05v0v-3.89h-2.54c-3.96667,0 -5.95,1.16333 -5.95,3.49v0c0,1.01333 0.33667,1.80667 1.01,2.38c0.68,0.56667 1.55,0.85 2.61,0.85zM147.345,251.983v0c1.16,0 2.17,-0.35 3.03,-1.05c0.86667,-0.7 1.34667,-1.57667 1.44,-2.63v0h3.06c-0.06,1.08667 -0.43333,2.12 -1.12,3.1c-0.68667,0.98 -1.60667,1.76333 -2.76,2.35c-1.14667,0.58 -2.36333,0.87 -3.65,0.87v0c-2.57333,0 -4.62333,-0.86 -6.15,-2.58c-1.52,-1.72 -2.28,-4.07333 -2.28,-7.06v0v-0.54c0,-1.84667 0.33667,-3.48667 1.01,-4.92c0.68,-1.43333 1.65333,-2.54667 2.92,-3.34c1.26667,-0.79333 2.76333,-1.19 4.49,-1.19v0c2.12,0 3.88333,0.63333 5.29,1.9c1.40667,1.27333 2.15667,2.92667 2.25,4.96v0h-3.06c-0.09333,-1.22667 -0.56,-2.23333 -1.4,-3.02c-0.83333,-0.78667 -1.86,-1.18 -3.08,-1.18v0c-1.64667,0 -2.92333,0.59 -3.83,1.77c-0.9,1.18667 -1.35,2.9 -1.35,5.14v0v0.61c0,2.18 0.44667,3.86 1.34,5.04c0.9,1.18 2.18333,1.77 3.85,1.77zM159.665,230.753h3.24v4.59h3.54v2.5h-3.54v11.74c0,0.76 0.15667,1.33 0.47,1.71c0.32,0.38 0.85667,0.57 1.61,0.57v0c0.37333,0 0.88667,-0.07 1.54,-0.21v0v2.62c-0.84667,0.23333 -1.67333,0.35 -2.48,0.35v0c-1.44667,0 -2.53667,-0.43667 -3.27,-1.31c-0.74,-0.87333 -1.11,-2.11667 -1.11,-3.73v0v-11.74h-3.44v-2.5h3.44z"></path></g></g></svg>