<svg xmlns="http://www.w3.org/2000/svg" xmlns:xlink="http://www.w3.org/1999/xlink" viewBox="0,0,256,256" width="50px" height="50px"><g fill="#40c1d2" fill-rule="nonzero" stroke="none" stroke-width="1" stroke-linecap="butt" stroke-linejoin="miter" stroke-miterlimit="10" stroke-dasharray="" stroke-dashoffset="0" font-family="none" font-weight="none" font-size="none" text-anchor="none" style="mix-blend-mode: normal"><g transform="scale(5.12,5.12)"><path d="M6,4c-1.09306,0 -2,0.90694 -2,2v38c0,1.09306 0.90694,2 2,2h38c1.09306,0 2,-0.90694 2,-2v-38c0,-1.09306 -0.90694,-2 -2,-2zM6,6h38v38h-38zM19.58594,14c-1.44,0 -2.59394,0.16002 -3.58594,0.41602v21.58398h2.46484v-9.16992c0.352,0.031 0.67189,0.03125 1.08789,0.03125c1.92,0 3.93589,-0.79844 5.08789,-2.39844c0.833,-1.088 1.31055,-2.43202 1.31055,-4.41602c0,-1.887 -0.54341,-3.45647 -1.56641,-4.48047c-1.12,-1.088 -2.81583,-1.56641 -4.79883,-1.56641zM19.97656,15.64063c2.751,0 3.64648,1.98145 3.64648,4.18945c0,3.04 -1.63225,4.64063 -4.03125,4.64063c-0.416,0 -0.70419,-0.0315 -0.99219,-0.0625v-8.60742c0.32,-0.097 0.80095,-0.16016 1.37695,-0.16016zM34.48828,19.75c-1.437,0 -2.35814,0.652 -2.86914,2.125l-0.125,0.375v-2.25h-2.49414v16h2.49414l0.0293,-9.25c0,-0.544 0.0317,-0.9922 0.0957,-1.4082c0.255,-1.792 1.30514,-3.24805 2.86914,-3.24805c0.193,0 0.35172,-0.00075 0.51172,0.03125v-2.34375c-0.16,-0.032 -0.31972,-0.03125 -0.51172,-0.03125z"></path></g></g></svg>