<svg xmlns="http://www.w3.org/2000/svg" xmlns:xlink="http://www.w3.org/1999/xlink" viewBox="0,0,256,256" width="50px" height="50px"><g fill="#40c1d2" fill-rule="nonzero" stroke="none" stroke-width="1" stroke-linecap="butt" stroke-linejoin="miter" stroke-miterlimit="10" stroke-dasharray="" stroke-dashoffset="0" font-family="none" font-weight="none" font-size="none" text-anchor="none" style="mix-blend-mode: normal"><g transform="scale(5.12,5.12)"><path d="M39.08008,1.00195c-0.35172,0 -0.71235,0.04611 -1.06836,0.14648l-34.21875,9.625c-0.99148,0.27815 -1.83241,0.93651 -2.32812,1.83203c-0.47717,0.86216 -0.59281,1.88118 -0.31445,2.82813l0.62891,2.55664c0.00918,0.03508 0.02027,0.06964 0.0332,0.10352c0.00109,0.01174 0.0024,0.02346 0.00391,0.03516l4.51367,27.70117c0.29736,1.83304 1.91716,3.16992 3.78516,3.16992c0.20334,0 0.40791,-0.0166 0.61133,-0.04883l7.60547,-1.19336l27.43359,-4.29102c1.0146,-0.15866 1.92404,-0.70956 2.52344,-1.53711c0.58023,-0.80069 0.8201,-1.79959 0.66211,-2.77344l-4.51562,-27.71289c-0.08799,-0.54348 -0.5987,-0.91364 -1.14258,-0.82812l-27.61914,4.32617l26.99805,-8.05078c0.52878,-0.15733 0.83028,-0.71315 0.67383,-1.24219l-0.57227,-1.92578c-0.48439,-1.65373 -2.02929,-2.7207 -3.69336,-2.7207zM39.08008,3.00195c0.81393,0 1.54782,0.51098 1.77344,1.28125c0.00065,0.0013 0.0013,0.00261 0.00195,0.00391l0.27734,0.94141l-3.94727,-1.76953l1.36914,-0.38477c0.17599,-0.04962 0.35111,-0.07227 0.52539,-0.07227zM31.52539,5.05078l4.10938,1.85156l-5.51953,1.64648l-4.26562,-1.90234zM20.1875,8.24023l4.37695,1.96289l-5.53125,1.65039l-4.49805,-2.02344zM8.84961,11.42969l4.64258,2.07617l-5.53711,1.65039l-4.43164,-1.98047c0.21815,-0.21926 0.4867,-0.38571 0.81055,-0.47656zM42.62109,12.74609l4.35742,26.73242c0.07339,0.45544 -0.03122,0.89458 -0.30859,1.27734c-0.2886,0.39845 -0.70549,0.65503 -1.21289,0.73438l-27.43359,4.29102l-7.60742,1.19531c-0.00065,0 -0.0013,0 -0.00195,0c-0.09789,0.01557 -0.20081,0.02344 -0.29883,0.02344c-0.936,0 -1.66991,-0.62327 -1.81055,-1.49023l-3.8457,-23.59766l3.25195,-3.70117l5.8125,-0.91016l-3.37305,3.83984l5.83008,-0.91016l3.36523,-3.8418l5.79688,-0.90625l-3.36328,3.83789l5.81055,-0.91016l3.37305,-3.83984l5.80469,-0.9082l-3.35742,3.83789l5.80078,-0.91016h0.00977l3.36328,-3.83789zM40.51172,18.40625l-32.74219,5.13086c-0.263,0.042 -0.4983,0.18439 -0.6543,0.40039c-0.156,0.216 -0.22073,0.48505 -0.17773,0.74805l3.14844,19.3125c0.08,0.49 0.50237,0.83984 0.98437,0.83984c0.052,0 0.10325,-0.00372 0.15625,-0.01172l32.74219,-5.125c0.263,-0.041 0.4983,-0.18439 0.6543,-0.40039c0.156,-0.216 0.22073,-0.48505 0.17773,-0.74805l-3.14844,-19.32031c-0.088,-0.543 -0.59763,-0.90517 -1.14062,-0.82617z"></path></g></g></svg>