<svg xmlns="http://www.w3.org/2000/svg" xmlns:xlink="http://www.w3.org/1999/xlink" viewBox="0,0,256,256" width="48px" height="48px"><g fill="#40c1d2" fill-rule="nonzero" stroke="none" stroke-width="1" stroke-linecap="butt" stroke-linejoin="miter" stroke-miterlimit="10" stroke-dasharray="" stroke-dashoffset="0" font-family="none" font-weight="none" font-size="none" text-anchor="none" style="mix-blend-mode: normal"><g transform="scale(5.33333,5.33333)"><path d="M24.007,45.419c-0.574,0 -1.143,-0.15 -1.646,-0.44l-5.24,-3.103c-0.783,-0.438 -0.401,-0.593 -0.143,-0.682c1.044,-0.365 1.255,-0.448 2.369,-1.081c0.117,-0.067 0.27,-0.043 0.39,0.028l4.026,2.389c0.145,0.079 0.352,0.079 0.486,0l15.697,-9.061c0.145,-0.083 0.24,-0.251 0.24,-0.424v-18.113c0,-0.181 -0.094,-0.342 -0.243,-0.432l-15.69,-9.054c-0.145,-0.086 -0.338,-0.086 -0.483,0l-15.688,9.053c-0.152,0.086 -0.249,0.255 -0.249,0.428v18.114c0,0.173 0.094,0.338 0.244,0.42l4.299,2.483c2.334,1.167 3.76,-0.208 3.76,-1.591v-17.877c0,-0.255 0.2,-0.452 0.456,-0.452h1.988c0.248,0 0.452,0.196 0.452,0.452v17.886c0,3.112 -1.697,4.9 -4.648,4.9c-0.908,0 -1.623,0 -3.619,-0.982l-4.118,-2.373c-1.018,-0.59 -1.647,-1.691 -1.647,-2.865v-18.114c0,-1.179 0.629,-2.279 1.646,-2.861l15.714,-9.065c0.994,-0.562 2.314,-0.562 3.301,0l15.694,9.069c1.012,0.585 1.645,1.682 1.645,2.861v18.114c0,1.175 -0.633,2.271 -1.646,2.861l-15.694,9.064c-0.503,0.291 -1.073,0.44 -1.654,0.44"></path><path d="M28.856,32.937c-6.868,0 -8.308,-3.153 -8.308,-5.797c0,-0.251 0.203,-0.452 0.455,-0.452h2.028c0.224,0 0.413,0.163 0.448,0.384c0.306,2.066 1.218,3.108 5.371,3.108c3.308,0 4.715,-0.747 4.715,-2.502c0,-1.01 -0.401,-1.76 -5.54,-2.263c-4.299,-0.424 -6.955,-1.371 -6.955,-4.809c0,-3.167 2.672,-5.053 7.147,-5.053c5.026,0 7.517,1.745 7.831,5.493c0.012,0.13 -0.035,0.255 -0.122,0.35c-0.086,0.09 -0.208,0.145 -0.334,0.145h-2.039c-0.212,0 -0.397,-0.149 -0.44,-0.354c-0.491,-2.173 -1.678,-2.868 -4.904,-2.868c-3.611,0 -4.031,1.257 -4.031,2.2c0,1.143 0.495,1.477 5.367,2.122c4.825,0.64 7.116,1.544 7.116,4.935c0,3.418 -2.853,5.379 -7.827,5.379"></path></g></g><g fill="#40c1d2" fill-rule="nonzero" stroke="none" stroke-width="1" stroke-linecap="butt" stroke-linejoin="miter" stroke-miterlimit="10" stroke-dasharray="" stroke-dashoffset="0" font-family="none" font-weight="none" font-size="none" text-anchor="none" style="mix-blend-mode: normal"><g><path d="M1.05833,226.53833h4.1l0.14,3.19c1.94,-2.44 4.47333,-3.66 7.6,-3.66v0c5.36,0 8.06333,3.02333 8.11,9.07v0v16.76h-4.34v-16.78c-0.01333,-1.82667 -0.43,-3.18 -1.25,-4.06c-0.82,-0.87333 -2.1,-1.31 -3.84,-1.31v0c-1.4,0 -2.63333,0.37667 -3.7,1.13c-1.06,0.74667 -1.88667,1.73 -2.48,2.95v0v18.07h-4.34zM26.39833,239.28833v-0.3c0,-2.48667 0.48667,-4.72333 1.46,-6.71c0.98,-1.98 2.34,-3.51 4.08,-4.59c1.74,-1.08 3.73,-1.62 5.97,-1.62v0c3.44667,0 6.23667,1.19667 8.37,3.59c2.13333,2.38667 3.2,5.56667 3.2,9.54v0v0.3c0,2.46667 -0.47,4.68333 -1.41,6.65c-0.94667,1.96 -2.3,3.48667 -4.06,4.58c-1.76,1.09333 -3.78,1.64 -6.06,1.64v0c-3.43333,0 -6.21667,-1.19667 -8.35,-3.59c-2.13333,-2.38667 -3.2,-5.55 -3.2,-9.49zM30.75833,239.49833v0c0,2.81333 0.65,5.07333 1.95,6.78c1.30667,1.7 3.05333,2.55 5.24,2.55v0c2.20667,0 3.95667,-0.86333 5.25,-2.59c1.3,-1.72667 1.95,-4.14333 1.95,-7.25v0c0,-2.78667 -0.66,-5.04333 -1.98,-6.77c-1.32,-1.72667 -3.07333,-2.59 -5.26,-2.59v0c-2.14667,0 -3.87333,0.85333 -5.18,2.56c-1.31333,1.7 -1.97,4.13667 -1.97,7.31zM53.86833,239.33833v-0.33c0,-3.89333 0.92,-7.02333 2.76,-9.39c1.84667,-2.36667 4.26,-3.55 7.24,-3.55v0c2.97333,0 5.32667,1.01667 7.06,3.05v0v-13.22h4.33v36h-3.98l-0.21,-2.72c-1.73333,2.12667 -4.14667,3.19 -7.24,3.19v0c-2.94,0 -5.33667,-1.20333 -7.19,-3.61c-1.84667,-2.40667 -2.77,-5.54667 -2.77,-9.42zM58.19833,239.49833v0c0,2.87333 0.59333,5.12333 1.78,6.75c1.18667,1.62667 2.83,2.44 4.93,2.44v0c2.74667,0 4.75333,-1.23333 6.02,-3.7v0v-11.65c-1.3,-2.39333 -3.29333,-3.59 -5.98,-3.59v0c-2.12667,0 -3.78333,0.82 -4.97,2.46c-1.18667,1.64 -1.78,4.07 -1.78,7.29zM92.50833,252.36833v0c-3.43333,0 -6.23,-1.13 -8.39,-3.39c-2.15333,-2.25333 -3.23,-5.27333 -3.23,-9.06v0v-0.79c0,-2.52 0.48,-4.76667 1.44,-6.74c0.96,-1.98 2.30333,-3.52667 4.03,-4.64c1.72667,-1.12 3.6,-1.68 5.62,-1.68v0c3.29333,0 5.85333,1.08667 7.68,3.26c1.83333,2.17333 2.75,5.28333 2.75,9.33v0v1.8h-17.18c0.06,2.5 0.79,4.52 2.19,6.06c1.39333,1.54 3.17,2.31 5.33,2.31v0c1.53333,0 2.83,-0.31333 3.89,-0.94c1.06,-0.62667 1.99,-1.45333 2.79,-2.48v0l2.65,2.06c-2.12667,3.26667 -5.31667,4.9 -9.57,4.9zM91.97833,229.62833v0c-1.75333,0 -3.22333,0.63667 -4.41,1.91c-1.18667,1.27333 -1.92,3.06 -2.2,5.36v0h12.7v-0.33c-0.12667,-2.2 -0.72,-3.90667 -1.78,-5.12c-1.06667,-1.21333 -2.50333,-1.82 -4.31,-1.82z"></path></g></g></svg>